<!-- Generator: Adobe Illustrator 25.2.3, SVG Export Plug-In  -->
<svg version="1.1" xmlns="http://www.w3.org/2000/svg" xmlns:xlink="http://www.w3.org/1999/xlink" x="0px" y="0px" width="28px"
	 height="28px" viewBox="0 0 28 28" style="overflow:visible;enable-background:new 0 0 28 28;" xml:space="preserve">
<style type="text/css">
	.st0{fill:#E0A2DB;}
</style>
<defs>
</defs>
<g>
	<path class="st0" d="M20.6,9c-0.1-0.4-0.4-0.7-0.6-1c-0.3-0.3-0.6-0.5-1-0.6c-0.5-0.2-1-0.3-1.6-0.3h0c-0.9,0-1.2,0-3.4,0
		s-2.5,0-3.4,0C10,7.1,9.5,7.2,9,7.4C8.6,7.5,8.3,7.8,8,8C7.8,8.3,7.5,8.6,7.4,9c-0.2,0.5-0.3,1-0.3,1.6c0,0.9,0,1.2,0,3.4
		s0,2.5,0,3.4c0,0.5,0.1,1.1,0.3,1.6c0.1,0.4,0.4,0.7,0.6,1c0.3,0.3,0.6,0.5,1,0.6c0.5,0.2,1,0.3,1.6,0.3c0.9,0,1.2,0,3.4,0
		c2.3,0,2.5,0,3.4,0c0.5,0,1.1-0.1,1.6-0.3c0.7-0.3,1.3-0.9,1.6-1.6c0.2-0.5,0.3-1,0.3-1.6c0-0.9,0-1.2,0-3.4s0-2.5,0-3.4
		C20.9,10.1,20.8,9.5,20.6,9z M14,18.3c-2.4,0-4.3-1.9-4.3-4.3c0-2.4,1.9-4.3,4.3-4.3c2.4,0,4.3,1.9,4.3,4.3
		C18.3,16.4,16.4,18.3,14,18.3z M18.5,10.5c-0.6,0-1-0.5-1-1c0-0.6,0.5-1,1-1s1,0.5,1,1C19.5,10,19.1,10.5,18.5,10.5z"/>
	<path class="st0" d="M14,11.2c-1.6,0-2.8,1.3-2.8,2.8c0,1.6,1.3,2.8,2.8,2.8v0c0,0,0,0,0,0c1.6,0,2.8-1.3,2.8-2.8
		C16.8,12.4,15.6,11.2,14,11.2z"/>
	<path class="st0" d="M14,0C6.3,0,0,6.3,0,14s6.3,14,14,14s14-6.3,14-14S21.7,0,14,0z M22.4,17.5c0,0.7-0.1,1.4-0.4,2.1
		c-0.4,1.1-1.3,2-2.5,2.5c-0.7,0.2-1.4,0.4-2.1,0.4c-0.9,0-1.2,0.1-3.5,0.1c-2.3,0-2.6,0-3.5-0.1c-0.7,0-1.4-0.1-2.1-0.4
		c-0.6-0.2-1.1-0.5-1.5-1c-0.4-0.4-0.8-0.9-1-1.5c-0.2-0.7-0.4-1.4-0.4-2.1c0-0.9,0-1.2,0-3.5s0-2.6,0-3.5c0-0.7,0.1-1.4,0.4-2.1
		C6.2,7.9,6.5,7.4,7,7c0.4-0.4,0.9-0.8,1.5-1c0.7-0.2,1.4-0.4,2.1-0.4c0.9,0,1.2-0.1,3.5-0.1c2.3,0,2.6,0,3.5,0.1
		c0.7,0,1.4,0.1,2.1,0.4c0.6,0.2,1.1,0.5,1.5,1c0.4,0.4,0.8,0.9,1,1.5c0.2,0.7,0.4,1.4,0.4,2.1c0,0.9,0.1,1.2,0.1,3.5
		S22.5,16.6,22.4,17.5z"/>
</g>
</svg>
