<!-- Generator: Adobe Illustrator 25.2.3, SVG Export Plug-In  -->
<svg version="1.1" xmlns="http://www.w3.org/2000/svg" xmlns:xlink="http://www.w3.org/1999/xlink" x="0px" y="0px" width="28px"
	 height="28px" viewBox="0 0 28 28" style="overflow:visible;enable-background:new 0 0 28 28;" xml:space="preserve">
<style type="text/css">
	.st0{fill:#E0A2DB;}
</style>
<defs>
</defs>
<path class="st0" d="M14,0C6.3,0,0,6.3,0,14s6.3,14,14,14s14-6.3,14-14S21.7,0,14,0z M9.9,21.4H6.8v-9.9h3.1V21.4z M10.1,8.4
	c0,1-0.8,1.8-1.8,1.8S6.6,9.4,6.6,8.4c0-1,0.8-1.8,1.8-1.8C9.3,6.6,10.1,7.4,10.1,8.4C10.1,8.4,10.1,8.4,10.1,8.4z M21.4,16v5.4
	h-3.1v-4.8c0-1.1,0-2.6-1.6-2.6c-1.6,0-1.8,1.3-1.8,2.5v4.9h-3.1v-9.9h2.9v1.3h0c0.6-1,1.7-1.6,2.9-1.6c1.2-0.1,2.3,0.4,3,1.4
	C21.3,13.7,21.5,14.8,21.4,16z"/>
</svg>
