<!-- Generator: Adobe Illustrator 25.2.3, SVG Export Plug-In  -->
<svg version="1.1" xmlns="http://www.w3.org/2000/svg" xmlns:xlink="http://www.w3.org/1999/xlink" x="0px" y="0px" width="28px"
	 height="28px" viewBox="0 0 28 28" style="overflow:visible;enable-background:new 0 0 28 28;" xml:space="preserve">
<style type="text/css">
	.st0{fill-rule:evenodd;clip-rule:evenodd;fill:#E0A2DB;}
</style>
<defs>
</defs>
<path class="st0" d="M14,0C6.3,0,0,6.3,0,14s6.3,14,14,14s14-6.3,14-14S21.7,0,14,0z M20,10.9c0,0.1,0,0.3,0,0.4c0,0,0,0.1,0,0.1
	c0,4.9-4,8.8-8.8,8.8c-1.7,0-3.3-0.5-4.8-1.4c0.2,0,0.5,0,0.7,0c1.4,0,2.8-0.5,3.9-1.3c-1.3,0-2.5-0.9-2.9-2.2
	c0.5,0.1,0.9,0.1,1.4-0.1C8.1,15,7,13.7,7,12.2v0c0.4,0.2,0.9,0.4,1.4,0.4c-1.4-0.9-1.8-2.7-1-4.2c1.6,1.9,3.9,3.1,6.4,3.3
	c-0.1-0.2-0.1-0.5-0.1-0.7c0-0.9,0.4-1.7,1-2.3C16,7.5,18,7.6,19.2,8.8c0.7-0.1,1.4-0.4,2-0.8c-0.2,0.7-0.7,1.3-1.4,1.7
	c0.6-0.1,1.2-0.2,1.8-0.5C21.2,9.9,20.6,10.5,20,10.9z"/>
</svg>
